<svg height="200" width="188" xmlns="http://www.w3.org/2000/svg"><g fill="none" fill-rule="evenodd" stroke="#edd60a" stroke-width="2.835" transform="translate(1.488 2.068)"><path d="m92.875 175.305c31.533 0 46.697-7.31 46.697-7.31s.364-15.73.705-28.574c.342-12.842 4.725-54.648 4.725-54.648s3.138 11.143 6.59 21.343c3.453 10.2 5.493 19.3 2.354 39.232-3.139 19.929-12.55 37.868-12.55 37.868 9.523 16.007 22.982 12.9 22.982 12.9s7.567-21.7 12.276-33.888 9.144-41.832 8.136-50.783c-1.01-8.95-10.131-41.734-21.492-70.488-11.358-28.75-35.734-27.49-41.923-29.104s-10.324-10.637-10.324-10.637-.521-1.45-2.831-1.183c-2.309.264-8.992 1.765-15.762 1.765h.019c-6.769 0-13.454-1.501-15.762-1.765-2.31-.267-2.83 1.183-2.83 1.183s-4.135 9.024-10.322 10.637c-6.19 1.613-30.567.354-41.926 29.104-11.359 28.754-20.483 61.539-21.493 70.488-1.008 8.95 3.43 38.595 8.137 50.783 4.71 12.188 12.278 33.888 12.278 33.888s13.457 3.107 22.98-12.9c0 0-9.412-17.94-12.55-37.868-3.137-19.931-1.097-29.031 2.353-39.232 3.452-10.2 6.591-21.343 6.591-21.343s4.383 41.806 4.724 54.648c.342 12.844.706 28.574.706 28.574s15.979 7.31 47.512 7.31z"/><path d="m93.092 145.952v-118.61" stroke-linecap="round"/><path d="m73.984 3.57s2.905 15.615 17.533 15.96c14.627.346 20.595-15.934 20.595-15.934l3.809 4.86s-5.175 18.882-22.828 18.887c-20.507.008-22.829-18.887-22.829-18.887l3.72-4.887z"/></g></svg>