<svg height="180" width="183" xmlns="http://www.w3.org/2000/svg"><g fill="none" fill-rule="evenodd" stroke="#edd60a" stroke-linecap="round" stroke-width="2.835" transform="translate(2.264 1.504)"><path d="m7.016 18.206s-3.906-5.723-2.879-11.086c1.029-5.363 6.99-7.418 21.38-7.007 14.392.412 50.37 6.733 51.191 9.021.823 2.286-6.166 27.37-7.606 35.388-1.438 8.019-6.168 40.298-4.934 56.335 1.235 16.037 9.662 27.14 15.624 32.074 5.963 4.936 17.682 13.983 28.372 15.421s16.241 10.691 11.923 18.504c-4.317 7.815-21.38 7.143-34.126 8.507-12.746 1.361-23.848 2.39-34.538-1.104-10.69-3.498-14.598-4.319-14.598-4.319s-7.4 3.29-17.064 1.85c-9.661-1.438-17.268-4.728-18.09-9.047-.825-4.317-1.671-7.194-1.671-7.194s.026-14.966 1.67-20.746c1.646-5.778 6.168-14.208 6.374-16.673.206-2.469 1.438-28.168 1.233-38.038-.206-9.868-2.261-61.886-2.261-61.886z"/><path d="m126.97 173.121c8.018.499 15.549-.152 26.245-.887 15.458-1.059 19.04-3.309 23.132-7.25 4.092-3.937 4.218-15.503-4.243-17.126-3.288-.63-19.703-3.18-31.524-9.396-11.82-6.214-22.126-20.158-26.218-35.92-4.092-15.764-.757-28.647 1.667-35.62 2.425-6.97 10.913-32.584 11.254-36.373.342-3.79-.645-11.067-.341-12.58.302-1.516 1.06-7.58-1.516-8.944-2.146-1.134-36.755-7.93-49.933-8.964 0 0-3.566-.511-4.536 1.425" stroke-linejoin="round"/><path d="m7.851 138.964s12.242 19.108 14.934 19.78c2.69.674 27.082 10.091 27.082 10.091s3.631-15.47 24.706-14.349c21.075 1.12 30.042 5.155 31.164 9.192"/><path d="m178.087 162.355s-24.531 5.932-51.117 4.922" stroke-linejoin="round"/><path d="m16.748 102.36s4.55-.157 6.276 2.982c1.727 3.137 5.177 8.471 3.922 11.454-1.255 2.982-6.432 11.612-11.14 11.769-4.707.156-5.333-3.923-5.333-3.923m116.467-106.674s-7.993 1.312-17.243 0c-9.254-1.31-14.573-1.542-16.655 4.934-2.082 6.478-7.97 27.15-3.754 35.318 4.216 8.17 12.312 9.56 13.931 9.79m-27.727-50.786s-20.152 2.439-30.329-1.263c-10.177-3.701-28.219-8.794-30.068-2.199-1.85 6.594 7.402 26.026 5.55 38.286-1.85 12.26.925 26.602 5.551 25.677s6.246-10.642 15.96-11.105"/></g></svg>