<svg height="171" width="166" xmlns="http://www.w3.org/2000/svg"><g fill="none" fill-rule="evenodd" stroke="#edd60a" stroke-linecap="round" stroke-width="2.7" transform="translate(2 2)"><path d="m79.712 64.11c0-3.825 3.094-6.926 6.91-6.926s6.91 3.1 6.91 6.925-3.094 6.926-6.91 6.926-6.91-3.101-6.91-6.926z"/><path d="m159.335 136.613c.209 5.085.104 10.51-.965 13.37-2.369 6.332-12.24 17.017-12.24 17.017-67.913-37.2-139.774-55.799-139.774-55.799s-.79-28.89-6.318-36.012c-.789-17.411 11.055-40.76 11.055-40.76v-7.913s9.477-26.516 71.797-26.516c44.54 0 64.507 31.333 72.275 49.21"/><path d="m159.423 61.34s-9.477.211-21.145-1.759c-12.303-2.075-32.124-6.63-41.131-9.55-9.008-2.92-22.988-3.65-27.029 11.341-4.041 14.992 3.526 27.49 18.153 35.866 14.625 8.378 27.15 16.536 70.099 27.516 7.5-35.163 1.053-63.414 1.053-63.414z"/></g></svg>