<svg height="198" width="88" xmlns="http://www.w3.org/2000/svg"><g fill="none" fill-rule="evenodd" stroke="#edd60a" stroke-width="2.835" transform="translate(1.59 2.208)"><path d="m26.107 4.8s.503 15.582-14.42 23.94m-10.68 88.348s12.189-9.358 25.67 0m-13.317 27.085h-.297c-2.84 0-5.163-2.413-5.163-5.359v-10.946c0-2.944 2.323-5.36 5.163-5.36h.297c2.84 0 5.165 2.416 5.165 5.36v10.946c0 2.946-2.325 5.36-5.165 5.36z"/><path d="m42.432 0h-31.263c-2.226 0-4.029 1.869-4.029 4.182v16.698s-11.002 129.206-5.692 170.566c0 0-.755 2.365 7.589 2.755 8.35.397 12.143-1.179 12.143-1.179s1.138-5.12 1.138-9.061c0-3.939 7.59-114.238 7.59-114.238s1.518-13.002 12.524-13.002h-.38c11.003 0 12.523 13.002 12.523 13.002s7.586 110.3 7.586 114.238c0 3.94 1.14 9.061 1.14 9.061s3.795 1.576 12.142 1.18c8.348-.391 7.588-2.756 7.588-2.756 5.315-41.36-5.69-170.566-5.69-170.566v-16.698c-.001-2.313-1.801-4.182-4.027-4.182h-31.262v29.542m16.468-24.889s-.504 15.583 14.421 23.943m10.535 88.492s-12.19-9.358-25.67 0"/><path d="m71.122 144.173h.297c2.838 0 5.162-2.413 5.162-5.359v-10.946c0-2.944-2.324-5.36-5.162-5.36h-.297c-2.84 0-5.165 2.416-5.165 5.36v10.946c0 2.946 2.325 5.36 5.165 5.36zm-13.706-32.866s11.956-81.368-14.984-81.764h-.38c-26.94.396-14.986 81.764-14.986 81.764"/></g></svg>